<?xml version="1.0" encoding="utf-8"?>
<!-- Generator: Adobe Illustrator 25.1.0, SVG Export Plug-In . SVG Version: 6.00 Build 0)  -->
<svg version="1.0" id="Layer_1" xmlns="http://www.w3.org/2000/svg" xmlns:xlink="http://www.w3.org/1999/xlink" x="0px" y="0px"
	 viewBox="0 0 256 256" style="enable-background:new 0 0 256 256;" xml:space="preserve">
<style type="text/css">
	.st0{fill:#5EAF30;}
	.st1{fill:#FFFFFF;}
</style>
<rect class="st0" width="256" height="256"/>
<g>
	<path class="st1" d="M128,32c-52.9,0-96,43.1-96,96s43.1,96,96,96s96-43.1,96-96S180.9,32,128,32z M128,209.2
		c-44.8,0-81.2-36.4-81.2-81.2c0-44.8,36.4-81.2,81.2-81.2s81.2,36.4,81.2,81.2C209.2,172.8,172.8,209.2,128,209.2z"/>
	<path class="st1" d="M189.2,101.3c-1.4-1.8-3.5-2.8-5.8-2.8h-44.2c-0.1,0-0.2,0-0.3,0H97.8l-5.2-5.2c-2.9-2.9-7.6-2.9-10.4,0
		c-2.9,2.9-2.9,7.6,0,10.4l4.4,4.4l-13.8,55c-1,4,1.4,8,5.4,9c4,1,8-1.4,9-5.4l13.4-53.5h29.1l-12.5,49.9c-1,4,1.4,8,5.4,9
		c4,1,8-1.4,9-5.4l13.4-53.5h29.1l-12.5,49.9c-1,4,1.4,8,5.4,9c0.6,0.2,1.2,0.2,1.8,0.2c3.3,0,6.3-2.2,7.2-5.6l14.8-59.1
		C191.1,105.4,190.6,103.1,189.2,101.3z"/>
</g>
<g>
</g>
<g>
</g>
<g>
</g>
<g>
</g>
<g>
</g>
<g>
</g>
<g>
</g>
<g>
</g>
<g>
</g>
<g>
</g>
<g>
</g>
<g>
</g>
<g>
</g>
<g>
</g>
<g>
</g>
</svg>
