<?xml version="1.0" encoding="utf-8"?>
<!-- Generator: Adobe Illustrator 28.2.0, SVG Export Plug-In . SVG Version: 6.00 Build 0)  -->
<svg version="1.1" id="レイヤー_1" xmlns="http://www.w3.org/2000/svg" xmlns:xlink="http://www.w3.org/1999/xlink" x="0px"
	 y="0px" viewBox="0 0 256 256" enable-background="new 0 0 256 256" xml:space="preserve">
<g>
	<path fill="#5EAF30" d="M128,32c-53.0193,0-96,42.9807-96,96s42.9807,96,96,96s96-42.9807,96-96S181.0193,32,128,32z M128,208
		c-44.1828,0-80-35.8173-80-80c0-44.1828,35.8172-80,80-80s80,35.8172,80,80C208,172.1827,172.1828,208,128,208z"/>
</g>
<g>
	<path fill="#5EAF30" d="M72.6582,124.8154c6.5903-15.1865,12.2822-28.3018,23.3364-28.3018
		c11.0537,0,16.7456,13.1152,23.3359,28.3018c2.3335,5.377,5.9771,13.7725,8.6582,17.4424
		c2.6812-3.668,6.3228-12.0615,8.6567-17.437c6.5918-15.1919,12.2832-28.3071,23.3379-28.3071
		c11.0234,0.001,16.7119,13.0513,23.2979,28.1616l0.0557,0.1284c2.002,4.6144,4.9595,11.4216,7.4529,15.5899
		C191.5771,136.3829,192,132.2415,192,128c0-35.3463-28.6537-64-64-64s-64,28.6537-64,64c0,4.2416,0.4229,8.3831,1.2102,12.394
		C67.7031,136.2264,70.6597,129.4214,72.6582,124.8154z"/>
	<path fill="#5EAF30" d="M168.6641,131.1846l-0.0508-0.1162c-2.3271-5.3403-5.96-13.6748-8.6299-17.3262
		c-2.6816,3.6689-6.3242,12.0649-8.6582,17.4424c-6.5928,15.1895-12.2832,28.3018-23.3364,28.3018
		c-11.0537,0-16.7456-13.1152-23.3359-28.3018c-2.3335-5.3774-5.9771-13.7729-8.6582-17.4424
		c-2.6816,3.6694-6.3252,12.0649-8.6587,17.4424c-5.0038,11.5316-9.4918,21.8624-16.2012,26.1703
		C81.7773,177.9286,103.2386,192,128,192s46.2227-14.0715,56.8653-34.6453C178.1561,153.0468,173.6679,142.7161,168.6641,131.1846z"
		/>
</g>
</svg>
