<?xml version="1.0" encoding="utf-8"?>
<!-- Generator: Adobe Illustrator 28.1.0, SVG Export Plug-In . SVG Version: 6.00 Build 0)  -->
<svg version="1.1" id="レイヤー_1" xmlns="http://www.w3.org/2000/svg" xmlns:xlink="http://www.w3.org/1999/xlink" x="0px"
	 y="0px" viewBox="0 0 256 256" enable-background="new 0 0 256 256" xml:space="preserve">
<path fill="#5EAF30" d="M62.2575,58.8588c0-8.2843,6.7157-15,15-15c8.2842,0,15,6.7157,15,15c0,8.2842-6.7158,15-15,15
	C68.9732,73.8588,62.2575,67.143,62.2575,58.8588z M179.464,73.8588c8.2843,0,15-6.7158,15-15c0-8.2843-6.7157-15-15-15
	s-15,6.7157-15,15C164.464,67.143,171.1797,73.8588,179.464,73.8588z M209.9196,202.1412l-21.2556-100h9.6928v-10h-11.8183H180.35
	h-3.3121h-10.9464l-37.2271,83.6134L90.6298,92.1412H80.4064h-2.1613H70.183h-0.625H57.683v10h10.3745l-21.2557,100H34.6762v10h10
	h8.0068h2.2166L76.9284,108.504l41.1771,91.4158l-5.4414,12.2215h10.9464h21.8928l-11.0925-24.2577l35.218-79.101l21.9696,103.3588
	h11.7186h8.7282h9.2787v-10H209.9196z"/>
</svg>
