<?xml version="1.0" encoding="utf-8"?>
<!-- Generator: Adobe Illustrator 28.1.0, SVG Export Plug-In . SVG Version: 6.00 Build 0)  -->
<svg version="1.1" id="レイヤー_1" xmlns="http://www.w3.org/2000/svg" xmlns:xlink="http://www.w3.org/1999/xlink" x="0px"
	 y="0px" viewBox="0 0 384 384" enable-background="new 0 0 384 384" xml:space="preserve">
<g>
	<path fill="#5EAF30" d="M126.2575,80.6778c0-8.2843,6.7157-15,15-15c8.2842,0,15,6.7157,15,15c0,8.2842-6.7158,15-15,15
		C132.9732,95.6778,126.2575,88.962,126.2575,80.6778z M243.464,95.6778c8.2843,0,15-6.7158,15-15c0-8.2843-6.7157-15-15-15
		s-15,6.7157-15,15C228.464,88.962,235.1797,95.6778,243.464,95.6778z M273.9196,223.9602l-21.2556-100h9.6928v-10h-11.8183H244.35
		h-3.3121h-10.9464l-37.2271,83.6134l-38.2346-83.6134h-10.2234h-2.1613h-8.062h-0.625h-11.875v10h10.3745l-21.2557,100H98.6762v10
		h10h8.0068h2.2166l22.0287-103.6372l41.1771,91.4158l-5.4413,12.2215h10.9464h21.8928l-11.0925-24.2577l35.218-79.101
		l21.9696,103.3588h11.7186h8.7282h9.2787v-10H273.9196z"/>
	<g>
		<path d="M109.1982,305.5781h-4.6436l-0.6484-10.4023c-0.2158-3.6719-0.3955-7.5234-0.3232-10.1514l-4.5361,17.8545h-4.499
			l-4.8232-17.8906c0.1436,3.3477,0.0723,6.7676-0.1445,10.3311l-0.6113,10.2588h-4.6074l1.9795-24.873H92.46l4.4277,17.4219
			l4.1758-17.4219h6.1904L109.1982,305.5781z"/>
		<path d="M129.5742,297.4795H117.624c0.3604,3.8867,2.1602,5.1475,4.6797,5.1475c1.6914,0,3.0957-0.54,4.751-1.6924l1.9082,2.6279
			c-1.8721,1.5117-4.1758,2.5557-7.0557,2.5557c-5.9033,0-9.0703-3.9238-9.0703-9.9346c0-5.7959,3.0596-10.1865,8.459-10.1865
			c5.3271,0,8.3867,3.5986,8.3867,9.6104C129.6826,296.2197,129.6104,296.9756,129.5742,297.4795z M125.1113,294.2754
			c0-3.1318-1.1162-5.0029-3.708-5.0029c-2.1592,0-3.5273,1.4395-3.7793,5.2188h7.4873V294.2754z"/>
		<path d="M149.4824,291.792v13.7861h-4.6074v-13.0664c0-2.376-0.9004-3.0596-2.3398-3.0596c-1.6562,0-2.8799,1.1162-3.9961,2.8799
			v13.2461h-4.6074v-19.042h3.9961l0.3594,2.5205c1.4766-1.9082,3.3838-3.0596,5.7959-3.0596
			C147.502,285.9971,149.4824,288.1562,149.4824,291.792z"/>
		<path d="M170.3975,291.792v13.7861H165.79v-13.0664c0-2.376-0.9355-3.0596-2.3398-3.0596c-1.6191,0-2.8789,1.1162-3.9951,2.8438
			v13.2822h-4.6074v-26.6367l4.6074-0.4678v10.3662c1.4395-1.7998,3.2754-2.8428,5.543-2.8428
			C168.3818,285.9971,170.3975,288.1924,170.3975,291.792z"/>
		<path d="M191.2773,297.4795h-11.9502c0.3604,3.8867,2.1602,5.1475,4.6797,5.1475c1.6914,0,3.0957-0.54,4.751-1.6924l1.9082,2.6279
			c-1.8721,1.5117-4.1758,2.5557-7.0557,2.5557c-5.9033,0-9.0703-3.9238-9.0703-9.9346c0-5.7959,3.0596-10.1865,8.459-10.1865
			c5.3271,0,8.3867,3.5986,8.3867,9.6104C191.3857,296.2197,191.3135,296.9756,191.2773,297.4795z M186.8145,294.2754
			c0-3.1318-1.1162-5.0029-3.708-5.0029c-2.1592,0-3.5273,1.4395-3.7793,5.2188h7.4873V294.2754z"/>
		<path d="M206.9375,286.2842l-0.792,4.4639c-0.5752-0.1436-1.0439-0.2158-1.6914-0.2158c-2.3398,0-3.4912,1.6914-4.2119,4.9316
			v10.1143h-4.6074v-19.042h3.9961l0.4316,3.7441c0.9004-2.7363,2.7354-4.248,4.9678-4.248
			C205.7139,286.0322,206.3262,286.1045,206.9375,286.2842z"/>
		<path d="M225.333,302.9863l-0.9717,3.0596c-2.0879-0.1797-3.4551-0.8994-4.2109-2.7715c-1.332,2.0156-3.4199,2.8438-5.6875,2.8438
			c-3.8154,0-6.1553-2.4121-6.1553-5.8672c0-4.1396,3.1318-6.3711,8.6748-6.3711h2.376v-1.0801
			c0-2.4834-1.1162-3.3115-3.5635-3.3115c-1.2959,0-3.1318,0.3594-5.04,1.0078l-1.0801-3.1318
			c2.3398-0.8994,4.752-1.3672,6.9111-1.3672c5.0762,0,7.3076,2.3389,7.3076,6.5508v7.9912
			C223.8936,302.0869,224.3975,302.627,225.333,302.9863z M219.3584,300.4307v-3.8516h-1.9082
			c-2.9873,0-4.4629,1.0801-4.4629,3.3115c0,1.8359,0.9355,2.8799,2.6992,2.8799
			C217.3066,302.7705,218.4941,301.9424,219.3584,300.4307z"/>
		<path fill="#5EAF30" d="M233.9385,303.2021c0,1.584-1.2959,2.916-2.9512,2.916c-1.6201,0-2.8799-1.332-2.8799-2.916
			c0-1.6191,1.2598-2.915,2.8799-2.915C232.6426,300.2871,233.9385,301.583,233.9385,303.2021z"/>
		<path fill="#5EAF30" d="M257.2285,305.5781h-5.7598l-2.8789-14.9385l-2.9521,14.9385h-5.6514l-4.2109-19.042h4.6074
			l2.6631,15.6582l3.3115-15.6582h4.7158l3.0234,15.6582l2.8438-15.6582h4.4277L257.2285,305.5781z"/>
		<path fill="#5EAF30" d="M269.7217,279.6973c0,1.5479-1.1875,2.7715-2.915,2.7715c-1.6924,0-2.8799-1.2236-2.8799-2.7715
			c0-1.584,1.1875-2.8076,2.8799-2.8076C268.5342,276.8896,269.7217,278.1133,269.7217,279.6973z M269.1455,305.5781h-4.6074
			v-19.042h4.6074V305.5781z"/>
		<path fill="#5EAF30" d="M279.2979,305.5781h-4.6074v-26.6729l4.6074-0.5039V305.5781z M284.373,294.9238l6.9473,10.6543h-5.291
			l-6.5518-10.4023l6.3721-8.6396h4.8594L284.373,294.9238z"/>
		<path fill="#5EAF30" d="M299.0977,279.6973c0,1.5479-1.1875,2.7715-2.916,2.7715c-1.6914,0-2.8789-1.2236-2.8789-2.7715
			c0-1.584,1.1875-2.8076,2.8789-2.8076C297.9102,276.8896,299.0977,278.1133,299.0977,279.6973z M298.5215,305.5781h-4.6074
			v-19.042h4.6074V305.5781z"/>
	</g>
</g>
</svg>
