<?xml version="1.0" encoding="utf-8"?>
<svg version="1.1" xmlns="http://www.w3.org/2000/svg" xmlns:xlink="http://www.w3.org/1999/xlink" x="0px"
	 y="0px" viewBox="0 0 1920 640" style="enable-background:new 0 0 1920 640;" xml:space="preserve">
<style type="text/css">
	.st0{fill:#5EAF30;}
	.st1{fill:#1A140F;}
	.st2{fill:#FFFFFF;}
</style>
<g>
	<polygon class="st0" points="731.6064,207.3972 1856.6064,207.3972 1856.6064,187.3972 478.6064,320.3972 538.6064,567.3972 
		731.6064,567.3972 	"/>
	<g>
		<g>
			<path d="M893.3604,144.1338v9.6738h-95.4448v-9.6738h42.5635v-24.7207h-30.6328v-9.5664h30.6328V88.3506h-23.8613
				c-3.332,6.4482-6.8789,12.1455-10.6406,16.6592c-2.0425-1.7197-6.4492-4.6211-9.1362-6.0186
				c8.7061-9.1357,15.4775-23.8613,19.4546-38.9092l10.3184,2.3652c-1.6123,5.4814-3.5474,10.9629-5.5894,16.1221h19.4546V58.5771
				h10.3184v19.9922h37.4038v9.7812h-37.4038v21.4961h33.4272v9.5664h-33.4272v24.7207H893.3604z"/>
			<path d="M921.2305,107.9121c-4.4072-3.0098-13.3281-8.1689-19.7773-11.501l5.4819-7.416
				c6.1265,3.0098,15.2627,7.7393,19.7769,10.6406L921.2305,107.9121z M903.603,149.0781
				c5.6968-8.0615,13.9727-21.8193,20.2065-33.9648l7.2017,6.6641c-5.4819,11.0713-12.6831,23.9688-19.0244,33.9648
				L903.603,149.0781z M926.2817,78.8916c-4.4067-3.1172-13.3276-8.2764-19.6694-11.8232l5.5894-7.0938
				c6.2339,3.0098,15.3701,7.8467,19.9917,10.8564L926.2817,78.8916z M970.9941,99.2061v15.9072h22.1426v41.3809h-9.459v-3.9766
				h-35.5767v4.5146h-9.1362v-41.9189h22.5713V99.2061h-29.8799v-9.5664h29.8799V74.3779
				c-7.5234,1.1816-15.2622,2.042-22.3564,2.5791c-0.4297-2.3643-1.7197-6.126-2.9019-8.3838
				c18.3794-1.9346,39.2319-5.374,51.0542-9.7803l7.8467,7.7383c-6.8789,2.5801-15.2627,4.6221-24.1846,6.2344v16.874h28.4834
				v9.5664H970.9941z M983.6777,124.1426h-35.5767v19.3467h35.5767V124.1426z"/>
			<path d="M1006.668,106.9453c2.2568-7.3096,3.9766-19.2402,4.6211-27.624l7.2012,0.8604
				c-0.3223,8.4912-2.041,21.0664-4.2988,29.1279L1006.668,106.9453z M1034.6133,92.0049
				c-1.0742-3.7617-3.332-10.1035-5.4814-15.0479v80.0752h-9.1357V58.5771h9.1357v17.5205l6.2334-2.4727
				c2.1504,4.8369,4.9453,11.1787,6.0195,15.1553L1034.6133,92.0049z M1106.3047,92.6494v7.417h-69.6494v-7.417h29.4502V86.416
				h-23.6465v-6.9863h23.6465v-5.5898h-26.2256v-7.416h26.2256v-7.9541h9.8887v7.9541h27.1934v7.416h-27.1934v5.5898h24.3984v6.9863
				h-24.3984v6.2334H1106.3047z M1098.458,146.8213c0,4.5137-0.9678,7.0938-4.1914,8.4912
				c-3.332,1.3965-8.3838,1.5049-15.7998,1.5049c-0.4297-2.4727-1.7207-6.2344-2.9023-8.5986
				c4.9443,0.3223,10.1035,0.2148,11.5,0.2148c1.5059-0.1074,1.9355-0.5381,1.9355-1.8271v-5.8047h-35.5771v16.2305h-9.2432V105.333
				h54.2783V146.8213z M1053.4229,112.8564v6.6641H1089v-6.6641H1053.4229z M1089,133.6006v-6.6641h-35.5771v6.6641H1089z"/>
			<path d="M1144.0195,86.5234h18.8105v8.4912h-9.9961l4.6211,1.1816c-1.8271,4.5146-3.7617,9.2441-5.4814,12.6836h9.5654v8.5986
				h-17.5195v10.1035h16.123v8.4902h-16.123v20.7451h-9.3506v-20.7451h-16.875v-8.4902h16.875v-10.1035h-17.8428v-8.5986h9.3516
				c-0.5371-3.6543-2.1494-8.7061-4.084-12.6836l4.4062-1.1816H1115v-8.4912h19.6689v-9.3516h-15.7998v-8.3838h15.7998V58.6846
				h9.3506v10.1035h14.833v8.3838h-14.833V86.5234z M1144.2344,107.9121c1.5059-3.6543,3.4395-9.0283,4.5146-12.8975h-18.5947
				c1.9355,4.1914,3.7617,9.458,4.1924,12.8975l-3.5469,0.9678h17.0898L1144.2344,107.9121z M1210.9824,101.3555
				c-2.1504,12.791-6.2344,24.8291-12.1465,35.04c4.6221,5.374,9.9961,9.7803,16.0156,12.79
				c-2.1504,1.8271-5.1602,5.4814-6.6641,7.9541c-5.4824-3.2246-10.4258-7.5244-14.833-12.6836
				c-3.7617,4.9443-8.1689,9.2441-13.1123,12.791c-1.29-1.8271-3.4395-4.1924-5.4824-5.8047v5.6973h-9.0283V63.1992h42.7783v20.3145
				c0,4.6221-0.9668,7.2012-4.7295,8.5986c-3.5469,1.3975-9.0283,1.3975-17.0889,1.3975c-0.4307-2.5801-1.7207-6.2344-3.0098-8.5986
				c6.126,0.2148,11.8223,0.2148,13.4355,0.1074c1.6113-0.1074,2.041-0.4297,2.041-1.6123V72.0127h-24.3984v27.5156h28.4834
				l1.6123-0.4297L1210.9824,101.3555z M1174.7598,149.6152c4.9443-3.4395,9.1367-7.8457,12.791-12.8975
				c-5.4824-8.4912-9.6738-18.3799-12.791-29.0205V149.6152z M1183.1436,107.6973c2.3643,7.3086,5.5889,14.2949,9.5664,20.6367
				c3.4395-6.4492,5.9111-13.4355,7.6309-20.6367H1183.1436z"/>
			<path d="M1296.5488,117.5859c6.0186,6.2334,14.4023,11.7158,22.6787,14.6172c-2.042,1.8271-5.0518,5.374-6.4492,7.7393
				c-10.3184-4.5146-20.6367-13.0059-27.1924-22.3564h-32.0303c-2.5801,3.7617-5.9111,7.5234-9.459,10.8555h19.6689v-8.0615h10.1035
				v8.0615h21.2822v7.9541h-21.2822v9.5654h36.1152v8.2764h-80.9355v-8.2764h34.7168v-9.5654h-20.5283v-7.0938
				c-5.374,4.8359-11.6084,8.9209-17.7354,11.8223c-1.3965-2.3643-4.2988-5.9111-6.4492-7.6309
				c8.4922-3.2246,17.0898-9.2432,23.2168-15.9072h-22.1406v-8.2764h20.8516V76.0977h-15.5859v-8.1689h15.5859v-9.3516h9.9951
				v9.3516h36.5439v-9.2441h10.2109v9.2441h15.3711v8.1689h-15.3711v33.2119h20.207v8.2764H1296.5488z M1250.9756,76.0977v6.0186
				h36.5439v-6.0186H1250.9756z M1250.9756,95.5518h36.5439v-6.127h-36.5439V95.5518z M1250.9756,109.3096h36.5439v-6.4492h-36.5439
				V109.3096z"/>
			<path d="M1343.7119,96.3037c-1.1826,9.3516-4.085,19.4551-11.2861,26.7637c-1.1826-1.6123-4.4062-4.4072-6.127-5.374
				c5.8047-6.127,8.2764-13.6504,9.3516-20.959l-7.9541,0.4297l-0.4297-7.8467l9.0283-0.3223c0-1.0752,0-2.1494,0-3.2246V66.209
				h11.8232c1.0752-2.6875,2.2578-5.5889,2.9023-7.8467l8.7061,1.1826c-1.0752,2.3643-2.1494,4.6221-3.2246,6.6641h15.0479v21.2812
				l4.7295-0.2148l-0.2148,7.3086l-4.5146,0.2148v16.3379c0,3.9766-0.6445,6.3418-3.332,7.7383
				c-2.7949,1.29-6.7715,1.29-12.5752,1.29c-0.2148-1.9346-1.0752-4.8369-2.042-7.0938h-3.8701v-14.833h6.4492v14.2959
				c2.6875,0.1074,4.8369,0.1074,5.6963,0c1.1826,0,1.3975-0.3223,1.3975-1.5049V95.3369L1343.7119,96.3037z M1412.6084,145.9609
				h12.3604v8.0615h-97.0566v-8.0615h12.2529v-23.3232h72.4434V145.9609z M1344.249,88.6729l19.0244-0.8604V73.0879h-19.0244v12.79
				V88.6729z M1353.3848,74.915c2.1504,3.1172,4.4072,7.416,5.374,10.1035l-6.126,2.4717
				c-0.9678-2.7939-3.2246-7.2012-5.1592-10.5332L1353.3848,74.915z M1349.5156,145.9609h11.501v-15.6924h-11.501V145.9609z
				 M1370.1523,130.2686v15.6924h11.7158v-15.6924H1370.1523z M1379.1807,89.1025c-1.2891-1.8271-3.6543-4.2988-5.0518-5.374
				c7.417-4.1914,8.5986-9.3506,8.5986-14.0801v-7.416h28.2686v14.5098c0,2.042,0.2148,2.2568,1.6123,2.2568h3.6543
				c1.5049,0,1.9346-0.752,2.1494-7.5234c1.6123,1.1826,4.8369,2.2568,6.9863,2.7949c-0.752,9.3506-2.9014,11.8223-7.9531,11.8223
				h-6.2344c-6.3418,0-8.2764-2.042-8.2764-9.2432V69.541h-12.2529v0.3223c0,6.5566-1.8271,13.8652-9.6738,19.2393h30.418
				l1.6123-0.2148l5.0518,2.2568c-2.6875,7.3096-6.9863,13.0059-12.2529,17.5205c5.6963,2.4717,12.5752,4.1914,20.0996,5.0508
				c-1.9355,1.9355-4.4072,5.2676-5.375,7.7393c-8.5986-1.3975-16.2295-3.9766-22.5713-7.5234
				c-5.8037,3.1162-12.2529,5.374-19.3467,6.8789c-0.8594-2.043-3.2246-5.8047-4.8369-7.3096
				c6.127-1.0742,11.7158-2.5791,16.6602-4.7285c-3.6543-3.2246-6.6641-6.8789-9.0283-11.0713l6.0186-1.6123h-8.8135v-6.9863
				H1379.1807z M1389.7139,96.0889c2.043,3.2246,4.9443,6.0195,8.4912,8.3838c3.332-2.2568,6.2344-5.0518,8.3838-8.3838H1389.7139z
				 M1391.0039,130.2686v15.6924h11.7158v-15.6924H1391.0039z"/>
			<path d="M1435.877,63.9521h38.0488v9.0283h-16.1221c-1.6123,8.1689-3.6543,16.1221-6.2344,23.6465h20.7441v47.292h-21.0664
				v8.2764h-8.3838v-36.3291c-1.6123,2.6865-3.2246,5.1592-5.0518,7.416c-0.4297-2.5791-2.4717-8.5986-3.9766-11.2861
				c7.0938-9.5654,11.7158-23.7529,14.5098-39.0156h-12.4678V63.9521z M1463.7148,105.5479h-12.4678v29.5576h12.4678V105.5479z
				 M1533.3643,111.6738h-11.6084v45.4658h-9.5654v-45.4658h-15.2627c-0.5381,16.123-3.332,33.9648-14.9404,46.0029
				c-1.7197-1.6123-5.374-4.5146-7.6309-5.8037c10.2109-10.6416,12.6826-26.4414,13.2197-40.1992h-11.0703v-9.458h11.1777V73.4102
				h-8.2754v-9.3506h51.8066v9.3506h-9.459v28.8057h11.6084V111.6738z M1512.1904,102.2158V73.4102h-15.1553v28.8057H1512.1904z"/>
			<path d="M1626.8311,146.6064c2.6865,0,3.1172-1.8271,3.5469-15.585c2.1494,1.8271,6.6641,3.5469,9.458,4.2988
				c-0.9668,16.7676-3.6543,21.0664-11.8232,21.0664h-10.4258c-9.2432,0-11.9307-2.9014-11.9307-13.2197v-19.3477h-18.0566
				c-2.2568,12.5762-10.9639,25.7959-39.7686,33.6426c-1.5049-2.3643-4.4072-6.0195-6.7715-8.1689
				c24.8281-6.5566,33.3193-16.3369,36.0068-25.4736h-28.376v-9.3506h29.5576v-12.3604h9.9961v12.3604h27.8379v28.5908
				c0,3.1162,0.5381,3.5469,3.1172,3.5469H1626.8311z M1582.333,76.957c-2.2578,17.0898-8.7061,27.0859-34.1797,32.3525
				c-0.8604-2.3643-3.2246-6.2344-5.2666-8.0615c22.1416-3.8691,27.1934-11.2852,29.0205-24.291h-17.0898v11.2861h-9.9961v-20.207
				h40.1982v-9.6738h10.2109v9.6738h40.9512v19.2393h-10.5332V76.957h-18.917v16.875c0,2.7949,0.5371,3.1172,4.084,3.1172h11.2861
				c2.7949,0,3.332-0.9678,3.6543-7.7393c2.042,1.5049,6.127,3.0098,8.8135,3.4395c-1.0742,10.4258-3.7617,13.1133-11.2852,13.1133
				h-13.7578c-10.3184,0-12.6836-2.6875-12.6836-11.8232V76.957H1582.333z"/>
			<path d="M1738.9355,124.6797c-3.1172,6.4492-7.2012,12.0381-12.3604,16.9824c2.6865,4.6211,5.8037,7.0938,9.2432,7.0938
				c2.9023,0,3.9775-2.3652,4.5146-11.3936c1.7197,1.8271,4.7295,3.5469,6.6641,4.4072
				c-1.5049,12.0381-4.2998,15.4775-11.8232,15.4775c-6.2344,0-11.1787-3.6543-15.1553-9.9961
				c-5.2666,3.8691-11.0703,7.2012-17.5195,9.7812c-1.1826-1.7197-3.5469-4.8369-5.374-6.4492
				c7.3086-2.6875,13.7578-6.2344,19.2393-10.748c-2.2568-5.374-3.9766-11.8232-5.374-19.1318h-14.6182
				c-0.2148,1.8271-0.4297,3.5469-0.6445,5.2666c5.0518,3.2236,10.748,7.2012,13.7578,10.1025l-5.2666,6.8789
				c-2.2568-2.2568-6.2344-5.4814-10.2109-8.3828c-2.2568,9.0283-6.4492,16.7666-14.0801,22.3564
				c-1.29-2.043-3.7627-5.2666-5.9121-6.5566c9.5664-6.6641,12.3604-17.8428,13.4355-29.665h-7.2012v-5.375l-3.6543,5.1592
				c-1.29-3.332-3.9775-9.1357-6.5566-14.1875v50.7324h-9.0283v-45.251c-2.9023,9.8887-6.4492,19.2402-10.3184,25.3662
				c-1.0752-2.5791-3.2246-6.3418-4.6221-8.3838c5.8037-8.9209,11.2861-24.8281,14.0801-38.4785h-11.8232v-9.1357h12.6836V58.4697
				h9.0283v22.6797h10.6406v9.1357h-10.6406v4.6221c2.6865,3.8691,8.9209,14.0801,11.0703,17.8418h28.5908
				c-2.2568-15.6924-3.1172-34.2871-3.2246-54.1719h8.8135c-0.1074,6.2344,0,12.3613,0.1074,18.2725l3.4395-4.7295
				c0.7529,0.5381,1.3975,1.0752,2.1504,1.6123c2.2568-4.4062,4.6211-10.2109,6.0186-14.4023l7.7393,2.9023
				c-3.0098,5.2666-6.2344,11.2852-8.8145,15.585c1.3975,1.3965,2.7949,2.6865,3.7627,3.9766
				c2.3643-4.084,4.5137-8.0615,6.126-11.501l7.0938,3.332c-4.4062,7.3086-9.8877,15.9072-14.832,22.5713l9.1357-0.6445
				c-0.752-1.8271-1.5049-3.6543-2.3643-5.2666l5.8037-2.3652c2.7949,5.0518,5.4814,11.501,6.127,15.6934l-6.127,2.7939
				c-0.2148-1.29-0.6445-2.7939-1.0752-4.2988c-3.7617,0.4297-7.416,0.752-10.8555,1.1816c3.5469,2.043,7.8467,5.0518,9.9961,7.3096
				l-2.2568,2.1494h8.5986v7.9541h-25.3662c0.9668,4.7285,2.042,9.0283,3.332,12.6826c3.1172-3.6543,5.5889-7.6318,7.5234-11.8232
				L1738.9355,124.6797z M1682.6143,98.1309c2.2578-2.9014,4.5146-6.3408,6.8789-9.9951
				c-2.6865-3.332-7.2012-7.5244-11.0703-10.5342l3.9766-5.4814c0.7529,0.5381,1.3975,1.0752,2.1494,1.7197
				c2.2578-4.6211,4.5146-10.3184,6.0195-14.5098l7.6309,3.0098c-2.9014,5.2666-6.0186,11.2852-8.7061,15.585
				c1.3975,1.2891,2.6875,2.6865,3.7617,3.8691c2.3652-4.084,4.5146-8.0615,6.127-11.501l7.0938,3.332
				c-4.6221,7.7393-10.4258,16.875-15.6924,23.9688l8.2764-0.5371c-0.6455-2.042-1.5049-4.085-2.2578-5.9121l5.8047-2.042
				c2.5791,4.9443,4.9443,11.6084,5.4814,15.6924l-6.2344,2.5801c-0.1074-1.0752-0.4297-2.2578-0.752-3.5469
				c-7.416,0.8594-14.4023,1.6123-20.7441,2.1494l-1.3975-7.6309L1682.6143,98.1309z M1719.9111,96.7344
				c1.9346-2.4727,3.9766-5.4824,6.0186-8.5986c-2.5791-3.1172-6.6631-7.0947-10.4258-10.1035
				c0.3232,12.8975,1.29,24.6133,2.7949,34.7168h12.1455c-2.1494-1.8271-4.8369-3.8691-7.2012-5.2666l4.5137-4.1924l-9.6729,1.0752
				l-1.5049-7.416L1719.9111,96.7344z"/>
			<path d="M1784.6582,123.0674c-1.3975-3.4395-4.5146-9.3516-7.3086-14.4023v48.3672h-9.2432v-45.4658
				c-3.2246,10.2109-7.2021,19.6699-11.501,25.7959c-0.9678-2.6865-3.332-6.4492-4.7295-8.5986
				c6.3418-8.8135,12.4678-24.7207,15.3701-38.3711h-13.1133v-9.2432h13.9736V58.4697h9.2432v22.6797h11.501v9.2432h-11.501v6.3418
				c3.0098,3.9766,10.9629,16.1221,12.6826,19.0244L1784.6582,123.0674z M1852.3721,139.9424h-6.3408v7.0938
				c0,4.5137-0.9678,6.7715-4.085,8.2764c-3.1162,1.1816-7.9531,1.2891-14.832,1.2891c-0.4297-2.3643-1.6123-5.8037-2.6875-8.0605
				c4.5146,0.2148,9.1367,0.2148,10.5332,0.1074c1.29,0,1.7197-0.4297,1.7197-1.7197v-6.9863h-33.6416v16.6592h-9.1367v-16.6592
				h-6.8789v-7.5244h6.8789v-26.8701h21.0674v-5.2666h-26.1182v-7.417h14.0801v-6.0186h-9.459v-6.9863h9.459v-5.9121h-11.7158
				v-7.2012h11.7158v-8.2764h9.3506v8.2764h14.7256v-8.2764h9.3506v8.2764h12.791v7.2012h-12.791v5.9121h11.1787v6.9863h-11.1787
				v6.0186h14.9404v7.417h-27.3008v5.2666h22.0342v26.8701h6.3408V139.9424z M1803.0381,112.749v6.126h11.9307v-6.126H1803.0381z
				 M1803.0381,132.418h11.9307v-6.6641h-11.9307V132.418z M1812.2812,79.8594h14.7256v-5.9121h-14.7256V79.8594z
				 M1812.2812,92.8643h14.7256v-6.0186h-14.7256V92.8643z M1823.9971,112.749v6.126h12.6826v-6.126H1823.9971z M1836.6797,132.418
				v-6.6641h-12.6826v6.6641H1836.6797z"/>
		</g>
		<g>
			<path d="M343.4185,117.8701v5.833h-65.3813v-5.833H343.4185z"/>
			<path d="M376.3911,122.8389v26.0664c0,2.4482-0.5039,3.8164-2.1602,4.6084c-1.6562,0.7197-4.1763,0.792-8.2808,0.792
				c-0.2158-1.1523-0.936-3.168-1.584-4.3203h6.3364c0.8643,0,1.2241-0.2158,1.2241-1.0801v-25.5625
				c-4.4644,0.5039-8.8569,1.0088-12.8892,1.4404c0,9.1445-0.792,21.5303-5.9766,29.5225c-0.7202-0.792-2.6641-1.9443-3.7441-2.4482
				c4.7524-7.5605,5.3286-18.1455,5.3286-26.6426l-4.6807,0.5049l-0.5762-4.4648l5.2568-0.5039v-22.25h6.2642
				c1.0083-3.0244,2.1602-7.0566,2.5923-9.8652l5.7607,1.1523c-1.1523,2.9521-2.3765,6.1201-3.4565,8.7129h10.585v20.0176
				l3.3125-0.3604l0.0718,4.249L376.3911,122.8389z M359.0376,120.3184c3.9604-0.3594,8.3525-0.8633,12.8892-1.2959v-16.2012
				h-12.8892V120.3184z M364.9424,105.7734c1.9438,2.8799,3.6001,6.9131,4.1763,9.5771l-3.6724,1.5117
				c-0.5039-2.7363-2.0884-6.7686-3.8164-9.793L364.9424,105.7734z M366.7422,143.2168h-3.4561v-16.8496h3.4561V143.2168z
				 M412.1782,120.8945c-2.2319,8.7129-6.2646,15.6973-11.377,21.0977c4.3926,3.6006,9.6489,6.3369,15.6973,7.9209
				c-1.0801,1.0088-2.5923,3.0967-3.312,4.3926c-6.1929-1.8721-11.5933-4.8965-16.0576-8.9287
				c-4.7524,4.0322-10.2969,7.0566-16.2012,9.0732c-0.5044-1.2969-1.8726-3.3848-2.8804-4.4648
				c5.6162-1.6562,10.9448-4.4648,15.4814-8.2803c-3.9604-4.5371-7.0566-9.9375-9.2891-16.1299l4.0322-0.9355h-6.7686v-4.8252
				h26.4263l0.936-0.1436L412.1782,120.8945z M390.2163,100.8047c0,5.5449-1.2241,12.5293-6.9844,17.1377
				c-0.7925-0.9355-2.7363-2.5918-3.8164-3.168c5.1841-4.0322,5.9766-9.5049,5.9766-14.1133v-9.2168h20.7378v16.4893
				c0,1.3682,0,2.1602,0.2881,2.376c0.2876,0.2881,0.7197,0.3604,1.2236,0.3604h1.9443c0.6479,0,1.2964-0.0723,1.584-0.2881
				c0.2881-0.1436,0.5762-0.6484,0.7202-1.5117c0.144-1.0088,0.2163-3.0967,0.2881-5.833c0.936,0.8643,2.6641,1.6562,3.8882,2.0879
				c0,2.5928-0.2158,5.6895-0.6479,6.6973c-0.4321,1.2236-1.1519,1.9443-2.0879,2.376c-0.7925,0.4316-2.1606,0.5762-3.2407,0.5762
				h-3.6001c-1.2959,0-2.8804-0.2881-3.8882-1.1523c-0.936-0.9355-1.2964-2.0879-1.2964-5.9766V96.125h-11.0889V100.8047z
				 M388.5601,124.6396c1.9443,5.1836,4.8247,9.8643,8.4971,13.8252c3.6724-3.8164,6.6245-8.4971,8.5684-13.8252H388.5601z"/>
			<path d="M448.4634,133.6396c-1.8726-2.0879-5.8325-6.1201-9.0732-9.1445v29.8105h-5.2563v-27.9385
				c-3.6001,3.6006-7.3447,6.625-11.0166,9.001c-0.5762-1.3682-1.9443-3.8164-2.8086-4.8242
				c8.5688-4.9688,17.5698-14.041,22.5381-23.6182h-20.0176v-4.8965h11.3047V88.6357h5.2563v13.3936h6.2646l0.936-0.2158
				l3.0244,2.0156c-2.2324,5.5449-5.5444,10.873-9.3608,15.6973c3.3843,2.665,9.7207,8.209,11.521,9.793L448.4634,133.6396z
				 M488.1387,147.0332v5.2568h-40.3237v-5.2568h18.2178v-29.8828h-15.4092v-5.1846h15.4092V89.1396h5.3286v22.8262h15.3369v5.1846
				h-15.3369v29.8828H488.1387z"/>
			<path d="M556.6104,91.9482v62.3574h-5.4727v-3.2402h-49.1079v3.2402h-5.3286V91.9482H556.6104z M551.1377,145.9531V97.0605
				h-49.1079v48.8926H551.1377z M548.1855,113.5498h-9.793v23.3301c0,2.8809-0.7197,4.3203-2.8799,5.1123
				c-2.0166,0.793-5.4727,0.793-10.9453,0.793c-0.2158-1.3682-0.936-3.3125-1.6562-4.6807c4.1045,0.1436,7.9209,0.1436,9.001,0.0723
				c1.0801,0,1.4399-0.2881,1.4399-1.3682v-23.2588h-27.5063v-4.6797h27.5063v-9.1455h5.0405v9.1455h9.793V113.5498z
				 M515.0625,117.0781c3.6724,3.8887,7.417,9.2891,8.8569,13.0332l-4.1763,2.3047c-1.3682-3.7441-4.9688-9.3613-8.5688-13.3213
				L515.0625,117.0781z"/>
			<path d="M579.79,119.8145c-3.0244-2.3037-9.2168-5.3281-14.1851-7.0566l2.8081-4.1045c4.8242,1.585,11.0889,4.3213,14.2568,6.625
				L579.79,119.8145z M585.0469,130.3281c-3.6006,7.5605-8.353,16.417-12.3853,23.1133l-4.5366-3.4561
				c3.6724-5.6162,9.001-14.9053,12.8896-23.1143L585.0469,130.3281z M583.3906,100.877c-2.9521-2.5205-9.001-5.9043-13.9692-7.8486
				l2.8799-3.96c4.9688,1.7998,11.0894,4.8242,14.1138,7.416L583.3906,100.877z M627.0264,154.4502
				c-0.7207-1.8008-1.7285-3.8887-3.0244-6.1211c-13.8975,1.0801-28.3701,2.0166-38.3076,2.6641l-0.792-5.3281l5.9766-0.2881
				c3.0244-6.1201,6.4805-14.833,8.6406-21.6738h-14.6895v-5.1123h20.0186v-13.1777h-16.418v-5.04h16.418V88.6357h5.4717v11.7373
				h17.0654v5.04h-17.0654v13.1777h20.4502v5.1123h-24.9141c-2.6641,6.8408-6.0488,15.0488-9.2168,21.3135
				c7.416-0.3594,15.9854-0.8633,24.4824-1.4395c-2.3047-3.5283-4.8965-7.1289-7.417-10.2256l4.5361-2.376
				c5.4004,6.3369,11.3047,14.9775,13.7529,20.666L627.0264,154.4502z"/>
			<path d="M672.8164,90.7959c-0.0723,0.9365-0.0723,2.0889-0.1445,3.3125c0.6484,9.5049,4.5371,42.7715,31.6113,55.1572
				c-1.5127,1.1514-3.168,2.9521-3.9609,4.3916c-18.5771-8.7842-26.498-27.2178-29.9541-41.6191
				c-3.168,14.4014-10.585,31.7549-28.8027,41.6191c-0.9355-1.2959-2.6641-3.0234-4.3203-4.1035
				c29.1631-14.9053,29.1631-49.2529,29.667-58.7578H672.8164z"/>
		</g>
	</g>
	<g>
		<path d="M819.041,364.2695h-20.8818v23.2578h-6.8403V337.915h6.8403v20.7373h20.8818V337.915h6.8408v49.6123h-6.8408V364.2695z"/>
		<path d="M865.5674,387.5273h-5.6885l-0.5049-5.9043c-2.8799,4.6084-6.4082,6.7686-11.8086,6.7686
			c-6.625,0-10.585-4.1768-10.585-11.5938v-27.2178h6.625v26.498c0,5.1846,1.7275,7.1289,5.832,7.1289s7.2012-2.7363,9.5049-6.5527
			v-27.0742h6.625V387.5273z"/>
		<path d="M924.8662,360.3086v27.2188h-6.624v-26.2822c0-5.6885-2.4482-7.3447-5.3291-7.3447c-4.1035,0-6.3359,2.6641-8.9287,6.6963
			v26.9307h-6.624v-26.2822c0-5.6885-2.4482-7.3447-5.3291-7.3447c-4.1035,0-6.4082,2.6641-8.9287,6.6963v26.9307h-6.624v-37.9473
			h5.6885l0.5762,5.5439c2.5195-3.8164,5.9766-6.4082,10.9443-6.4082c4.6807,0,8.1367,2.5205,9.5771,6.8408
			c2.7363-4.1045,6.1924-6.8408,11.3047-6.8408C920.7617,348.7158,924.8662,353.1797,924.8662,360.3086z"/>
		<path d="M964.8252,383.7832l-1.5127,4.6084c-3.8164-0.4326-6.2646-1.9443-7.416-5.6885c-2.6641,3.96-6.6973,5.6885-11.3057,5.6885
			c-7.5605,0-12.0967-4.6807-12.0967-11.4492c0-8.1367,6.1201-12.5293,16.7051-12.5293h5.833v-2.8086
			c0-5.4717-2.6641-7.4883-7.9209-7.4883c-2.8086,0-6.3369,0.7197-10.2246,2.0166l-1.6562-4.8252
			c4.6807-1.7275,8.8564-2.5918,13.1055-2.5918c9.1445,0,13.3203,4.6807,13.3203,12.6006v17.3535
			C961.6562,381.9824,962.8809,383.0625,964.8252,383.7832z M955.0322,377.5186v-8.7129h-4.9688
			c-6.9844,0-10.5127,2.5918-10.5127,7.7764c0,4.4648,2.2324,6.8408,6.5527,6.8408
			C949.9912,383.4229,952.8721,381.4785,955.0322,377.5186z"/>
		<path d="M1001.5732,360.3086v27.2188h-6.624v-26.2822c0-5.6885-2.3047-7.3447-5.9766-7.3447c-4.249,0-7.1289,2.6641-9.6494,6.6963
			v26.9307h-6.624v-37.9473h5.6885l0.5762,5.6162c2.5918-3.8887,6.624-6.4805,11.5928-6.4805
			C997.541,348.7158,1001.5732,353.1084,1001.5732,360.3086z"/>
		<path d="M1010.4053,362.1807h20.3779v5.6172h-20.3779V362.1807z"/>
		<path d="M1039.5723,380.0381v-45.7236l6.625-0.792v46.3721c0,2.0156,0.6475,3.0244,2.376,3.0244
			c0.9355,0,1.7285-0.1445,2.4482-0.4326l1.7275,4.6084c-1.4395,0.792-3.3115,1.2969-5.2559,1.2969
			C1042.6689,388.3916,1039.5723,385.4385,1039.5723,380.0381z"/>
		<path d="M1067.3291,335.8984c0,2.5205-1.873,4.4648-4.6807,4.4648c-2.7363,0-4.6084-1.9443-4.6084-4.4648
			c0-2.5918,1.8721-4.5361,4.6084-4.5361C1065.4561,331.3623,1067.3291,333.3066,1067.3291,335.8984z M1066.0322,387.5273h-6.624
			v-37.9473h6.624V387.5273z"/>
		<path d="M1085.7607,344.3232v5.2568h9.2168l-0.7197,5.1123h-8.4971v32.835h-6.625v-32.835h-6.7686v-5.1123h6.7686v-5.1846
			c0-6.3369,4.1768-10.873,11.8818-10.873c3.5996,0,6.0479,0.6484,9.0723,1.9443l-2.0879,4.8242
			c-2.4482-1.0801-4.6807-1.4404-6.625-1.4404C1087.2012,338.8506,1085.7607,340.6514,1085.7607,344.3232z"/>
		<path d="M1129.2998,370.8213h-24.1943c0.6475,8.7852,4.752,12.1689,10.2246,12.1689c3.7441,0,6.5527-1.0078,9.8652-3.3115
			l2.8799,3.96c-3.7441,2.9521-7.9922,4.7529-13.249,4.7529c-10.585,0-16.7773-7.417-16.7773-19.4424
			c0-11.8086,5.9766-20.2334,15.7695-20.2334c10.2246,0,15.625,7.1289,15.625,18.7217
			C1129.4434,368.7334,1129.3711,369.958,1129.2998,370.8213z M1122.8906,365.4932c0-7.417-2.9521-11.5205-8.9287-11.5205
			c-5.04,0-8.3525,3.5283-8.8564,11.9521h17.7852V365.4932z"/>
		<path d="M798.1592,473.9268h-6.8403v-49.6123h6.8403V473.9268z"/>
		<path d="M838.207,446.709v27.2178h-6.624v-26.2822c0-5.6885-2.3047-7.3447-5.9771-7.3447c-4.248,0-7.1284,2.6641-9.6484,6.6973
			v26.9297h-6.6245v-37.9473h5.6885l0.5757,5.6172c2.5923-3.8887,6.6245-6.4814,11.5933-6.4814
			C834.1748,435.1152,838.207,439.5078,838.207,446.709z"/>
		<path d="M857.5303,430.7236v5.2559h9.2168l-0.7197,5.1123h-8.4971v32.835h-6.625v-32.835h-6.7686v-5.1123h6.7686v-5.1846
			c0-6.3359,4.1768-10.873,11.8818-10.873c3.5996,0,6.0479,0.6484,9.0723,1.9443l-2.0879,4.8252
			c-2.4482-1.0811-4.6807-1.4404-6.625-1.4404C858.9707,425.251,857.5303,427.0508,857.5303,430.7236z"/>
		<path d="M903.626,454.917c0,11.7373-6.1924,19.874-16.9219,19.874c-10.8008,0-16.9209-7.7764-16.9209-19.8018
			c0-11.7373,6.1924-19.874,16.9932-19.874S903.626,442.8926,903.626,454.917z M876.9121,454.9893
			c0,9.8652,3.4561,14.4736,9.792,14.4736c6.3369,0,9.793-4.6084,9.793-14.5459c0-9.8643-3.4561-14.4727-9.7207-14.4727
			C880.4404,440.4443,876.9121,445.0527,876.9121,454.9893z"/>
		<path d="M932.6475,435.5479l-1.2236,6.4805c-1.1523-0.2881-1.9443-0.4316-3.3125-0.4316c-4.7529,0-7.4893,3.3838-9.0732,10.6562
			v21.6738h-6.624v-37.9473h5.6885l0.6475,7.7051c2.0166-5.6885,5.5449-8.5693,10.1533-8.5693
			C930.127,435.1152,931.4951,435.2598,932.6475,435.5479z"/>
		<path d="M987.4053,446.709v27.2178h-6.624v-26.2822c0-5.6885-2.4482-7.3447-5.3291-7.3447c-4.1035,0-6.3359,2.6641-8.9287,6.6973
			v26.9297h-6.624v-26.2822c0-5.6885-2.4482-7.3447-5.3291-7.3447c-4.1035,0-6.4082,2.6641-8.9287,6.6973v26.9297h-6.624v-37.9473
			h5.6885l0.5762,5.5449c2.5195-3.8164,5.9766-6.4092,10.9443-6.4092c4.6807,0,8.1367,2.5205,9.5771,6.8408
			c2.7363-4.1045,6.1924-6.8408,11.3047-6.8408C983.3008,435.1152,987.4053,439.5801,987.4053,446.709z"/>
		<path d="M1027.3643,470.1826l-1.5127,4.6084c-3.8164-0.4316-6.2646-1.9443-7.416-5.6885
			c-2.6641,3.96-6.6973,5.6885-11.3057,5.6885c-7.5605,0-12.0967-4.6807-12.0967-11.4492c0-8.1367,6.1201-12.5283,16.7051-12.5283
			h5.833v-2.8086c0-5.4727-2.6641-7.4883-7.9209-7.4883c-2.8086,0-6.3369,0.7197-10.2246,2.0156l-1.6562-4.8242
			c4.6807-1.7285,8.8564-2.5928,13.1055-2.5928c9.1445,0,13.3203,4.6807,13.3203,12.6016v17.3535
			C1024.1953,468.3828,1025.4199,469.4629,1027.3643,470.1826z M1017.5713,463.918v-8.7129h-4.9688
			c-6.9844,0-10.5127,2.5928-10.5127,7.7773c0,4.4639,2.2324,6.8398,6.5527,6.8398
			C1012.5303,469.8223,1015.4111,467.8789,1017.5713,463.918z"/>
		<path d="M1055.4561,472.1992c-2.5205,1.7275-5.2559,2.5918-8.4971,2.5918c-6.4082,0-10.2246-3.7441-10.2246-10.8008v-22.8984
			h-6.624v-5.1123h6.624v-8.5684l6.625-0.792v9.3604h9.001l-0.7207,5.1123h-8.2803v22.6104c0,3.8164,1.2236,5.6162,4.5361,5.6162
			c1.6562,0,3.168-0.5039,5.04-1.6562L1055.4561,472.1992z"/>
		<path d="M1069.4307,422.2988c0,2.5195-1.873,4.4639-4.6807,4.4639c-2.7363,0-4.6084-1.9443-4.6084-4.4639
			c0-2.5928,1.8721-4.5371,4.6084-4.5371C1067.5576,417.7617,1069.4307,419.7061,1069.4307,422.2988z M1068.1338,473.9268h-6.624
			v-37.9473h6.624V473.9268z"/>
		<path d="M1110.5439,454.917c0,11.7373-6.1924,19.874-16.9219,19.874c-10.8008,0-16.9209-7.7764-16.9209-19.8018
			c0-11.7373,6.1924-19.874,16.9932-19.874S1110.5439,442.8926,1110.5439,454.917z M1083.8301,454.9893
			c0,9.8652,3.4561,14.4736,9.792,14.4736c6.3369,0,9.793-4.6084,9.793-14.5459c0-9.8643-3.4561-14.4727-9.7207-14.4727
			C1087.3584,440.4443,1083.8301,445.0527,1083.8301,454.9893z"/>
		<path d="M1148.2061,446.709v27.2178h-6.624v-26.2822c0-5.6885-2.3047-7.3447-5.9766-7.3447c-4.249,0-7.1289,2.6641-9.6494,6.6973
			v26.9297h-6.624v-37.9473h5.6885l0.5762,5.6172c2.5918-3.8887,6.624-6.4814,11.5928-6.4814
			C1144.1738,435.1152,1148.2061,439.5078,1148.2061,446.709z"/>
		<path d="M1213.2939,439.6523c0,11.377-8.2803,16.0566-19.2256,16.0566h-6.2646v18.2178h-6.8408v-49.6123h13.0332
			C1205.9492,424.3145,1213.2939,429.2109,1213.2939,439.6523z M1206.0215,439.7236c0-7.416-4.752-10.0801-12.0967-10.0801h-6.1211
			v20.665h5.9766C1201.125,450.3086,1206.0215,448.1484,1206.0215,439.7236z"/>
		<path d="M1220.1748,466.4385v-45.7236l6.625-0.793v46.3721c0,2.0166,0.6475,3.0244,2.376,3.0244
			c0.9355,0,1.7285-0.1436,2.4482-0.4316l1.7275,4.6084c-1.4395,0.792-3.3115,1.2959-5.2559,1.2959
			C1223.2715,474.791,1220.1748,471.8389,1220.1748,466.4385z"/>
		<path d="M1269.418,470.1826l-1.5127,4.6084c-3.8164-0.4316-6.2646-1.9443-7.416-5.6885c-2.6641,3.96-6.6973,5.6885-11.3057,5.6885
			c-7.5605,0-12.0967-4.6807-12.0967-11.4492c0-8.1367,6.1201-12.5283,16.7051-12.5283h5.833v-2.8086
			c0-5.4727-2.6641-7.4883-7.9209-7.4883c-2.8086,0-6.3359,0.7197-10.2246,2.0156l-1.6562-4.8242
			c4.6807-1.7285,8.8564-2.5928,13.1055-2.5928c9.1445,0,13.3203,4.6807,13.3203,12.6016v17.3535
			C1266.249,468.3828,1267.4736,469.4629,1269.418,470.1826z M1259.625,463.918v-8.7129h-4.9688
			c-6.9844,0-10.5127,2.5928-10.5127,7.7773c0,4.4639,2.2324,6.8398,6.5527,6.8398
			C1254.585,469.8223,1257.4648,467.8789,1259.625,463.918z"/>
		<path d="M1297.5098,472.1992c-2.5205,1.7275-5.2568,2.5918-8.4971,2.5918c-6.4082,0-10.2246-3.7441-10.2246-10.8008v-22.8984
			h-6.624v-5.1123h6.624v-8.5684l6.625-0.792v9.3604h9.001l-0.7207,5.1123h-8.2803v22.6104c0,3.8164,1.2236,5.6162,4.5361,5.6162
			c1.6562,0,3.168-0.5039,5.04-1.6562L1297.5098,472.1992z"/>
		<path d="M1312.499,430.7236v5.2559h9.2168l-0.7197,5.1123h-8.4971v32.835h-6.625v-32.835h-6.7686v-5.1123h6.7686v-5.1846
			c0-6.3359,4.1768-10.873,11.8818-10.873c3.5996,0,6.0479,0.6484,9.0723,1.9443l-2.0879,4.8252
			c-2.4482-1.0811-4.6807-1.4404-6.625-1.4404C1313.9395,425.251,1312.499,427.0508,1312.499,430.7236z"/>
		<path d="M1358.5947,454.917c0,11.7373-6.1924,19.874-16.9219,19.874c-10.8008,0-16.9209-7.7764-16.9209-19.8018
			c0-11.7373,6.1924-19.874,16.9932-19.874S1358.5947,442.8926,1358.5947,454.917z M1331.8809,454.9893
			c0,9.8652,3.4561,14.4736,9.792,14.4736c6.3369,0,9.793-4.6084,9.793-14.5459c0-9.8643-3.4561-14.4727-9.7207-14.4727
			C1335.4092,440.4443,1331.8809,445.0527,1331.8809,454.9893z"/>
		<path d="M1387.6162,435.5479l-1.2236,6.4805c-1.1523-0.2881-1.9443-0.4316-3.3125-0.4316c-4.7529,0-7.4893,3.3838-9.0732,10.6562
			v21.6738h-6.624v-37.9473h5.6885l0.6475,7.7051c2.0166-5.6885,5.5449-8.5693,10.1533-8.5693
			C1385.0957,435.1152,1386.4639,435.2598,1387.6162,435.5479z"/>
		<path d="M1442.374,446.709v27.2178h-6.624v-26.2822c0-5.6885-2.4482-7.3447-5.3291-7.3447c-4.1035,0-6.3359,2.6641-8.9287,6.6973
			v26.9297h-6.624v-26.2822c0-5.6885-2.4482-7.3447-5.3291-7.3447c-4.1035,0-6.4082,2.6641-8.9287,6.6973v26.9297h-6.624v-37.9473
			h5.6885l0.5762,5.5449c2.5195-3.8164,5.9766-6.4092,10.9443-6.4092c4.6807,0,8.1367,2.5205,9.5771,6.8408
			c2.7363-4.1045,6.1924-6.8408,11.3047-6.8408C1438.2695,435.1152,1442.374,439.5801,1442.374,446.709z"/>
		<path d="M1477.4141,439.4355l-2.8076,4.1768c-3.3848-2.1602-6.3369-3.2402-9.8652-3.2402c-4.3203,0-6.9844,1.9443-6.9844,4.9688
			c0,3.0957,2.0156,4.5361,8.1367,6.1201c7.9922,2.0166,12.6006,5.1846,12.6006,11.8096c0,7.9199-7.2725,11.5205-14.9775,11.5205
			c-6.4082,0-11.0166-2.0879-14.3291-4.9688l3.5283-4.0322c3.0244,2.3047,6.5527,3.6729,10.6572,3.6729
			c4.9688,0,8.1367-2.1602,8.1367-5.7607c0-3.7441-1.8721-5.1846-9.2168-7.1289c-8.209-2.1602-11.4492-5.6885-11.4492-11.0166
			c0-6.0488,5.833-10.4414,13.6816-10.4414C1469.8535,435.1152,1473.8145,436.7002,1477.4141,439.4355z"/>
		<path d="M798.1592,560.3271h-6.8403v-49.6123h6.8403V560.3271z"/>
		<path d="M838.207,533.1084v27.2188h-6.624v-26.2822c0-5.6885-2.3047-7.3447-5.9771-7.3447c-4.248,0-7.1284,2.6641-9.6484,6.6963
			v26.9307h-6.6245v-37.9473h5.6885l0.5757,5.6162c2.5923-3.8887,6.6245-6.4805,11.5933-6.4805
			C834.1748,521.5156,838.207,525.9082,838.207,533.1084z"/>
		<path d="M873.1699,525.8359l-2.8076,4.1768c-3.3848-2.1602-6.3369-3.2402-9.8652-3.2402c-4.3203,0-6.9844,1.9434-6.9844,4.9678
			c0,3.0967,2.0156,4.5361,8.1367,6.1211c7.9922,2.0156,12.6006,5.1846,12.6006,11.8086c0,7.9209-7.2725,11.5215-14.9775,11.5215
			c-6.4082,0-11.0166-2.0889-14.3291-4.9688l3.5283-4.0322c3.0244,2.3037,6.5527,3.6719,10.6572,3.6719
			c4.9688,0,8.1367-2.1602,8.1367-5.7607c0-3.7441-1.8721-5.1836-9.2168-7.1279c-8.209-2.1602-11.4492-5.6885-11.4492-11.0176
			c0-6.0479,5.833-10.4404,13.6816-10.4404C865.6094,521.5156,869.5703,523.0996,873.1699,525.8359z"/>
		<path d="M903.3955,558.5986c-2.5205,1.7285-5.2559,2.5928-8.4971,2.5928c-6.4082,0-10.2246-3.7451-10.2246-10.8018v-22.8975
			h-6.624v-5.1123h6.624v-8.5693l6.625-0.792v9.3613h9.001l-0.7207,5.1123h-8.2803v22.6094c0,3.8164,1.2236,5.6172,4.5361,5.6172
			c1.6562,0,3.168-0.5039,5.04-1.6562L903.3955,558.5986z"/>
		<path d="M917.3691,508.6982c0,2.5205-1.873,4.4648-4.6807,4.4648c-2.7363,0-4.6084-1.9443-4.6084-4.4648
			c0-2.5918,1.8721-4.5361,4.6084-4.5361C915.4961,504.1621,917.3691,506.1064,917.3691,508.6982z M916.0723,560.3271h-6.624
			v-37.9473h6.624V560.3271z"/>
		<path d="M947.7178,558.5986c-2.5205,1.7285-5.2559,2.5928-8.4971,2.5928c-6.4082,0-10.2246-3.7451-10.2246-10.8018v-22.8975
			h-6.624v-5.1123h6.624v-8.5693l6.625-0.792v9.3613h9.001l-0.7207,5.1123h-8.2803v22.6094c0,3.8164,1.2236,5.6172,4.5361,5.6172
			c1.6562,0,3.168-0.5039,5.04-1.6562L947.7178,558.5986z"/>
		<path d="M981.126,560.3271h-5.6885l-0.5049-5.9043c-2.8799,4.6084-6.4082,6.7686-11.8086,6.7686
			c-6.625,0-10.585-4.1768-10.585-11.5938v-27.2178h6.625v26.498c0,5.1846,1.7275,7.1289,5.832,7.1289s7.2012-2.7363,9.5049-6.5527
			v-27.0742h6.625V560.3271z"/>
		<path d="M1012.8467,558.5986c-2.5205,1.7285-5.2559,2.5928-8.4971,2.5928c-6.4082,0-10.2246-3.7451-10.2246-10.8018v-22.8975
			h-6.624v-5.1123h6.624v-8.5693l6.625-0.792v9.3613h9.001l-0.7207,5.1123h-8.2803v22.6094c0,3.8164,1.2236,5.6172,4.5361,5.6172
			c1.6562,0,3.168-0.5039,5.04-1.6562L1012.8467,558.5986z"/>
		<path d="M1046.2988,543.6211h-24.1943c0.6475,8.7852,4.752,12.1689,10.2246,12.1689c3.7441,0,6.5527-1.0078,9.8652-3.3115
			l2.8799,3.96c-3.7441,2.9521-7.9922,4.7529-13.249,4.7529c-10.585,0-16.7773-7.417-16.7773-19.4424
			c0-11.8086,5.9766-20.2334,15.7695-20.2334c10.2246,0,15.625,7.1289,15.625,18.7217
			C1046.4424,541.5332,1046.3701,542.7578,1046.2988,543.6211z M1039.8896,538.293c0-7.417-2.9521-11.5205-8.9287-11.5205
			c-5.04,0-8.3525,3.5283-8.8564,11.9521h17.7852V538.293z"/>
	</g>
	<g>
		<g>
			<path class="st1" d="M143.7139,416.3545h-14.0781l-1.9639-31.5381c-0.6553-11.1318-1.2007-22.8086-0.9824-30.7754
				l-13.7505,54.1289H99.2979l-14.624-54.2383c0.4365,10.1494,0.2188,20.5166-0.4365,31.3213l-1.855,31.1016H68.4136l6.0024-75.4092
				h18.5518l13.4233,52.8193l12.6592-52.8193h18.7705L143.7139,416.3545z"/>
			<path class="st1" d="M202.9785,391.8008h-36.2314c1.0913,11.7861,6.5479,15.6055,14.187,15.6055
				c5.1294,0,9.3853-1.6367,14.4053-5.1289l5.7837,7.9658c-5.6748,4.584-12.6592,7.749-21.3896,7.749
				c-17.8975,0-27.501-11.8955-27.501-30.1201c0-17.5703,9.2764-30.8848,25.646-30.8848c16.1514,0,25.4272,10.9131,25.4272,29.1387
				C203.3057,387.9805,203.0879,390.2725,202.9785,391.8008z M189.4463,382.0879c0-9.4941-3.3828-15.1689-11.2402-15.1689
				c-6.5479,0-10.6953,4.3652-11.459,15.8232h22.6992V382.0879z"/>
			<path class="st1" d="M260.9775,374.5576v41.7969h-13.9688v-39.6143c0-7.2021-2.728-9.2764-7.0933-9.2764
				c-5.02,0-8.7305,3.3838-12.1138,8.7305v40.1602H213.833V358.625h12.1138l1.0913,7.6387
				c4.4746-5.7842,10.2583-9.2764,17.5703-9.2764C254.9756,356.9873,260.9775,363.5352,260.9775,374.5576z"/>
			<path class="st1" d="M321.4766,374.5576v41.7969h-13.9688v-39.6143c0-7.2021-2.8369-9.2764-7.0933-9.2764
				c-4.9106,0-8.7305,3.3838-12.1138,8.6221v40.2686H274.332v-80.7568l13.9688-1.418v31.4297
				c4.3652-5.457,9.9312-8.6221,16.8066-8.6221C315.3652,356.9873,321.4766,363.6445,321.4766,374.5576z"/>
			<path class="st1" d="M382.4233,391.8008h-36.2314c1.0913,11.7861,6.5479,15.6055,14.187,15.6055
				c5.1289,0,9.3853-1.6367,14.4053-5.1289l5.7842,7.9658c-5.6748,4.584-12.6592,7.749-21.3896,7.749
				c-17.8975,0-27.501-11.8955-27.501-30.1201c0-17.5703,9.2759-30.8848,25.6455-30.8848c16.1514,0,25.4277,10.9131,25.4277,29.1387
				C382.751,387.9805,382.5322,390.2725,382.4233,391.8008z M368.8911,382.0879c0-9.4941-3.3833-15.1689-11.2407-15.1689
				c-6.5479,0-10.6943,4.3652-11.4585,15.8232h22.6992V382.0879z"/>
			<path class="st1" d="M427.5449,357.8604l-2.4004,13.5322c-1.7461-0.4365-3.165-0.6543-5.1294-0.6543
				c-7.0933,0-10.5854,5.1289-12.7681,14.9512v30.665h-13.9688V358.625h12.1133l1.3096,11.3496
				c2.7285-8.2939,8.2939-12.8779,15.0601-12.8779C423.835,357.0967,425.6899,357.3154,427.5449,357.8604z"/>
			<path class="st1" d="M481.7598,408.4971l-2.9463,9.2764c-6.3301-0.5459-10.4766-2.7285-12.7686-8.4033
				c-4.0381,6.1113-10.3672,8.6221-17.2427,8.6221c-11.5679,0-18.6616-7.3125-18.6616-17.7891
				c0-12.5498,9.4946-19.3154,26.3008-19.3154h7.2026v-3.2744c0-7.5303-3.3833-10.04-10.8042-10.04
				c-3.9287,0-9.4941,1.0918-15.2783,3.0557l-3.2734-9.4941c7.0933-2.7285,14.4053-4.1475,20.9531-4.1475
				c15.3872,0,22.1533,7.0938,22.1533,19.8623v24.2266C477.3945,405.7695,478.9224,407.4062,481.7598,408.4971z M463.644,400.749
				v-11.6768h-5.7837c-9.0581,0-13.5322,3.2734-13.5322,10.04c0,5.5654,2.8369,8.7305,8.1846,8.7305
				C457.4238,407.8428,461.0249,405.333,463.644,400.749z"/>
		</g>
		<g>
			<path class="st2" d="M537.5317,409.4141c0,4.8008-3.9287,8.8389-8.9492,8.8389c-4.9106,0-8.7305-4.0381-8.7305-8.8389
				c0-4.9111,3.8198-8.8398,8.7305-8.8398C533.603,400.5742,537.5317,404.5029,537.5317,409.4141z"/>
			<path class="st2" d="M597.7915,387.6963c0,18.2256-10.1489,30.5566-27.1733,30.5566s-27.1733-11.5674-27.1733-30.5566
				c0-18.1152,10.1489-30.4473,27.2822-30.4473C587.7515,357.249,597.7915,368.8164,597.7915,387.6963z M558.1772,387.6963
				c0,13.8604,4.2559,19.9717,12.4409,19.9717s12.4409-6.2207,12.4409-19.9717c0-13.75-4.2559-19.8613-12.332-19.8613
				C562.5425,367.835,558.1772,374.0547,558.1772,387.6963z"/>
			<path class="st2" d="M642.6851,358.1221l-2.4004,13.5322c-1.7461-0.4365-3.165-0.6543-5.1294-0.6543
				c-7.0933,0-10.5854,5.1289-12.7681,14.9502v30.666h-13.9688v-57.7305h12.1133l1.3096,11.3496
				c2.7285-8.2939,8.2939-12.877,15.0601-12.877C638.9751,357.3584,640.8301,357.5762,642.6851,358.1221z"/>
			<path class="st2" d="M700.73,361.9414c-4.3652,1.5283-9.8213,1.9648-16.6968,1.9648
				c6.9844,3.1641,10.4766,7.6387,10.4766,14.8418c0,11.2402-8.7305,19.4248-23.2446,19.4248c-2.5103,0-4.6929-0.2178-6.8755-0.873
				c-1.4185,0.9824-2.4009,2.5107-2.4009,4.2568c0,2.0732,1.2002,4.0371,6.9844,4.0371h8.8398
				c12.7681,0,21.062,6.875,21.062,16.3701c0,11.5674-9.9312,18.4424-28.8105,18.4424c-20.5166,0-26.3003-6.5469-26.3003-18.1152
				h12.5498c0,5.7842,2.5098,8.2939,13.9688,8.2939c11.2402,0,14.5146-3.0557,14.5146-7.6396c0-4.2559-3.3833-6.875-9.8223-6.875
				h-8.7305c-11.5674,0-16.4785-5.1289-16.4785-11.1309c0-4.0381,2.5098-8.0762,6.7661-10.6953
				c-7.0933-3.71-10.1489-8.8398-10.1489-16.2598c0-12.5508,9.9307-20.7354,23.8994-20.7354
				c13.6416,0.3271,19.9707-2.7285,26.9551-6.4385L700.73,361.9414z M660.4609,377.7656c0,6.9844,3.8198,11.3496,10.2583,11.3496
				c6.6572,0,10.2583-4.1465,10.2583-11.459c0-7.3115-3.4922-10.9131-10.4766-10.9131
				C664.1714,366.7432,660.4609,371.1084,660.4609,377.7656z"/>
		</g>
	</g>
</g>
</svg>
