<?xml version="1.0" encoding="utf-8"?>
<!-- Generator: Adobe Illustrator 27.1.1, SVG Export Plug-In . SVG Version: 6.00 Build 0)  -->
<svg version="1.1" id="レイヤー_1" xmlns="http://www.w3.org/2000/svg" xmlns:xlink="http://www.w3.org/1999/xlink" x="0px"
	 y="0px" viewBox="0 0 88 31" style="enable-background:new 0 0 88 31;" xml:space="preserve">
<style type="text/css">
	.st0{fill:#FFFFFF;}
	.st1{fill:#5EAF30;}
</style>
<g>
	<rect x="0.5" class="st0" width="87" height="30"/>
	<path class="st1" d="M87,0.5v29H1v-29H87 M88-0.5H0v31h88V-0.5L88-0.5z"/>
</g>
<g>
	<path class="st1" d="M12,7.5c-4.4125,0-8,3.5875-8,8s3.5875,8,8,8s8-3.5875,8-8S16.4125,7.5,12,7.5z M12,22.2687
		c-3.7312,0-6.7688-3.0375-6.7688-6.7687S8.2688,8.7312,12,8.7312s6.7687,3.0375,6.7687,6.7688S15.7312,22.2687,12,22.2687z"/>
	<path class="st1" d="M17.1,13.275c-0.1187-0.15-0.2937-0.2375-0.4875-0.2375h-3.675c-0.0063,0-0.0188,0-0.025,0h-3.425L9.05,12.6
		c-0.2375-0.2375-0.6312-0.2375-0.8688,0c-0.2375,0.2375-0.2375,0.6313,0,0.8688L8.55,13.8375L7.4062,18.425
		c-0.0812,0.3313,0.1188,0.6625,0.45,0.7438S8.5188,19.05,8.6,18.7188l1.1125-4.4563h2.425L11.1,18.4188
		c-0.0812,0.3312,0.1188,0.6625,0.45,0.7437c0.3312,0.0813,0.6625-0.1187,0.7437-0.45l1.1125-4.4563h2.425l-1.0375,4.1562
		c-0.0813,0.3313,0.1187,0.6625,0.45,0.7438c0.05,0.0125,0.1,0.0187,0.15,0.0187c0.275,0,0.525-0.1875,0.5938-0.4688l1.2312-4.925
		C17.2563,13.6187,17.2188,13.425,17.1,13.275z"/>
</g>
<g>
	<path d="M54.4883,8.6831V8.0889h-0.0176c-0.3242,0.4502-0.8281,0.7021-1.4316,0.7021c-1.0625,0-1.6738-0.5039-1.6738-1.4312
		c0-0.9727,0.9268-1.5127,2.1963-1.5127c0.3604,0,0.6475,0.0093,0.8369,0.0181c0-0.8374-0.333-1.1973-1.1348-1.1973
		c-0.459,0-0.9629,0.1621-1.332,0.4683L51.8867,4.416c0.4238-0.2524,0.9277-0.4321,1.5127-0.4321
		c1.2695,0,1.8457,0.603,1.8457,1.8901v2.0166c0,0.2793,0.0088,0.5762,0.0361,0.7925H54.4883z M54.3984,6.4956
		c0,0-0.3779-0.0181-0.5488-0.0181c-0.9541,0-1.584,0.2881-1.584,0.8823c0,0.4409,0.4043,0.7471,0.8633,0.7471
		c0.793,0,1.2695-0.4951,1.2695-1.2065V6.4956z"/>
	<path d="M30.1792,17.5322v-5.7568h-0.02l-1.8789,5.7568h-1.3394l-1.8789-5.7568l-0.02,0.02v5.7368h-1.3394v-6.9761h2.2388
		l1.6592,5.2871h0.02l1.6592-5.2871h2.2388v6.9761H30.1792z"/>
	<path d="M37.1504,17.2422c-0.4897,0.2705-1.0493,0.4102-1.7593,0.4102c-1.709,0-2.6982-0.9795-2.6982-2.6689
		c0-1.439,0.7495-2.7183,2.3887-2.7183c1.749,0,2.4487,1.0796,2.4487,3.1084h-3.5581c0.0601,0.8096,0.6094,1.2993,1.479,1.2993
		c0.6396,0,1.1992-0.2402,1.6992-0.52V17.2422z M36.251,14.4541c-0.0503-0.7397-0.3999-1.2095-1.0996-1.2095
		c-0.6694,0-1.1094,0.4399-1.1792,1.2095H36.251z"/>
	<path d="M41.9707,17.5322V14.644c0-0.77-0.1597-1.3394-0.8696-1.3394c-0.8491,0-1.1792,0.8193-1.1792,1.729v2.4985h-1.3394v-5.147
		h1.2695v0.6992h0.02c0.4097-0.5796,0.9795-0.8193,1.689-0.8193c1.1792,0,1.749,0.8096,1.749,2.019v3.248H41.9707z"/>
	<path d="M48.0801,17.5322V14.624c0-0.9395-0.2793-1.3193-0.8691-1.3193c-0.7891,0-1.1797,0.7192-1.1797,1.7388v2.4888h-1.3389
		v-7.4961h1.3389v3.0483h0.0205c0.3301-0.4897,0.9092-0.8193,1.6191-0.8193c1.1895,0,1.749,0.8296,1.749,2.0088v3.2583H48.0801z"/>
	<path d="M54.9297,17.2422c-0.4893,0.2705-1.0488,0.4102-1.7588,0.4102c-1.709,0-2.6982-0.9795-2.6982-2.6689
		c0-1.439,0.75-2.7183,2.3887-2.7183c1.749,0,2.4492,1.0796,2.4492,3.1084H51.752c0.0605,0.8096,0.6094,1.2993,1.4785,1.2993
		c0.6406,0,1.2002-0.2402,1.6992-0.52V17.2422z M54.0312,14.4541c-0.0508-0.7397-0.4004-1.2095-1.0996-1.2095
		c-0.6699,0-1.1094,0.4399-1.1797,1.2095H54.0312z"/>
	<path d="M56.3926,17.5322v-5.147h1.1895v1.1689h0.0195c0.0801-0.5396,0.6396-1.2891,1.4199-1.2891
		c0.2793,0,0.3594,0.0298,0.3994,0.04v1.3491c-0.1201-0.0698-0.3604-0.1099-0.5996-0.1099c-0.5,0-1.0889,0.27-1.0889,1.8691v2.1187
		H56.3926z"/>
	<path d="M63.3906,17.5322c-0.0391-0.1904-0.0498-0.54-0.0596-0.7695h-0.0205c-0.2988,0.5498-0.9492,0.8896-1.5889,0.8896
		c-0.9287,0-1.7988-0.5605-1.7988-1.5396c0-0.8892,0.5098-1.7588,2.5186-1.7588h0.8301v-0.02c0-0.8594-0.4404-1.0894-1.1602-1.0894
		c-0.5693,0-1.1387,0.2197-1.5889,0.5596l-0.04-1.1494c0.4805-0.2197,1.1699-0.3896,1.7891-0.3896
		c1.5391,0,2.2188,0.6196,2.2188,2.1689v1.0591c0,0.27,0.0205,1.3496,0.0801,2.0391H63.3906z M63.2715,15.1533h-0.5898
		c-0.9492,0-1.4795,0.2803-1.4795,0.8896c0,0.3999,0.3096,0.6299,0.8496,0.6299c0.5996,0,1.2197-0.4102,1.2197-1.4595V15.1533z"/>
	<path d="M65.8125,17.5322v-1.3994h1.3994v1.3994H65.8125z"/>
	<path d="M70.9512,17.6523c-1.6582,0-2.6885-1.1396-2.6885-2.6587c0-1.6489,1.1201-2.7285,2.6885-2.7285
		c1.5693,0,2.6992,1.0693,2.6992,2.7285C73.6504,16.5234,72.6104,17.6523,70.9512,17.6523z M72.251,14.8335
		c0-0.8193-0.4395-1.5288-1.2998-1.5288c-0.8389,0-1.2891,0.7192-1.2891,1.5288c0,1.0898,0.4199,1.7798,1.2891,1.7798
		C71.8213,16.6133,72.251,15.9429,72.251,14.8335z"/>
	<path d="M74.7334,17.5322v-5.147h1.1895v1.1689h0.0195c0.0801-0.5396,0.6396-1.2891,1.4199-1.2891
		c0.2793,0,0.3594,0.0298,0.3994,0.04v1.3491c-0.1201-0.0698-0.3604-0.1099-0.5996-0.1099c-0.5,0-1.0898,0.27-1.0898,1.8691v2.1187
		H74.7334z"/>
	<path d="M81.9814,16.7129h-0.0205c-0.29,0.5-0.9189,0.8193-1.5986,0.8193c-1.4199,0-2.0996-1.0796-2.0996-2.5986
		c0-1.2393,0.6396-2.6685,2.1797-2.6685c0.6787,0,1.209,0.23,1.5791,0.8193h0.0195v-0.6992h1.2793v4.6675
		c0,1.7393-0.8994,2.6982-2.6982,2.6982c-0.5195,0-1.1396-0.0703-1.7988-0.3496l0.1094-1.1396
		c0.4697,0.25,1.1094,0.4502,1.5098,0.4502c1.2588,0,1.5391-0.8096,1.5391-1.8799V16.7129z M81.9814,14.9038
		c0-0.7896-0.2803-1.5991-1.1299-1.5991c-0.7998,0-1.1895,0.6895-1.1895,1.6289c0,0.6997,0.3701,1.5591,1.1396,1.5591
		C81.6611,16.4927,81.9814,15.7334,81.9814,14.9038z"/>
	<path d="M39.4219,27.5742v-6.4824h0.8101v0.6484H40.25c0.3242-0.4678,0.9004-0.7559,1.5576-0.7559
		c1.2871,0,1.9805,1.0352,1.9805,2.3223c0,1.2969-0.6123,2.4854-1.9717,2.4854c-0.7021,0-1.2153-0.2344-1.5303-0.7383h-0.0181
		v2.5205H39.4219z M42.8877,23.3613c0-1.1797-0.585-1.7021-1.269-1.6934c-0.8916,0.0098-1.3506,0.8555-1.3506,1.7285
		c0,0.8105,0.4233,1.7109,1.3506,1.7109C42.4287,25.1074,42.8877,24.2793,42.8877,23.3613z"/>
	<path d="M44.9209,25.6836v-4.5918h0.792v0.7119h0.0176c0.2344-0.4951,0.7207-0.8193,1.207-0.8193
		c0.1797,0,0.3418,0.0176,0.5488,0.0625v0.7568c-0.1523-0.0635-0.3242-0.0811-0.4678-0.0811c-0.7744,0-1.251,0.7471-1.251,1.8721
		v2.0889H44.9209z"/>
	<path d="M48.1152,23.3877c0-1.4043,0.9375-2.4033,2.3418-2.4033c1.3408,0,2.3311,0.9541,2.3311,2.4033
		c0,1.2881-0.9268,2.4043-2.3408,2.4043C49.0977,25.792,48.1152,24.7207,48.1152,23.3877z M51.8877,23.3877
		c0-0.9092-0.5488-1.7197-1.4404-1.7197c-0.8818,0-1.4316,0.8379-1.4316,1.7197c0,0.8828,0.4863,1.7197,1.4414,1.7197
		C51.4023,25.1074,51.8877,24.2793,51.8877,23.3877z"/>
	<path d="M53.084,26.917c0.0898,0.0176,0.2246,0.0273,0.333,0.0273c0.4316,0,0.6123-0.4141,0.6123-0.9814v-4.8711h0.8457v4.8887
		c0,1.3057-0.54,1.7021-1.2969,1.7021c-0.1797,0-0.4043-0.0098-0.5215-0.0361L53.084,26.917z M53.9746,20.0664v-0.9551h0.9551
		v0.9551H53.9746z"/>
	<path d="M59.9434,25.4941c-0.666,0.2705-1.0625,0.2979-1.4414,0.2979c-1.5566,0-2.3848-0.9004-2.3848-2.4854
		c0-1.3857,0.873-2.3223,2.1514-2.3223c1.332,0,2.0254,0.8457,2.0254,2.5928h-3.2764c0.0078,0.918,0.7109,1.5303,1.5117,1.5303
		c0.4863,0,1.125-0.2344,1.4141-0.459V25.4941z M59.3936,22.9473c-0.0088-0.7383-0.4326-1.2793-1.1523-1.2793
		c-0.6748,0-1.1338,0.4863-1.2236,1.2793H59.3936z"/>
	<path d="M64.4512,25.6025c-0.2871,0.126-0.5938,0.1895-1.0625,0.1895c-1.3945,0-2.3398-1.0986-2.3398-2.4043
		c0-1.4043,0.9355-2.4033,2.3398-2.4033c0.334,0,0.7842,0.0811,1.0273,0.1797l-0.0723,0.7021
		c-0.3242-0.1348-0.6387-0.1982-0.918-0.1982c-0.9277,0-1.4766,0.8291-1.4766,1.7197c0,0.8281,0.4492,1.7197,1.5303,1.7197
		c0.2881,0,0.6484-0.0898,0.9092-0.2607L64.4512,25.6025z"/>
	<path d="M67.9346,25.666c-0.2256,0.0625-0.46,0.126-0.7295,0.126c-0.9453,0-1.4043-0.4951-1.4043-1.3242v-2.6914h-1.0352v-0.6846
		h1.0352v-1.0615l0.8457-0.2705v1.332h1.2158v0.6846h-1.2158v2.5303c0,0.4229,0.252,0.8008,0.7119,0.8008
		c0.2783,0,0.459-0.0898,0.5762-0.1621V25.666z"/>
</g>
</svg>
