<?xml version="1.0" encoding="utf-8"?>
<!-- Generator: Adobe Illustrator 27.1.1, SVG Export Plug-In . SVG Version: 6.00 Build 0)  -->
<svg version="1.1" id="レイヤー_1" xmlns="http://www.w3.org/2000/svg" xmlns:xlink="http://www.w3.org/1999/xlink" x="0px"
	 y="0px" viewBox="0 0 88 31" style="enable-background:new 0 0 88 31;" xml:space="preserve">
<style type="text/css">
	.st0{fill:#FFFFFF;}
	.st1{fill:#5EAF30;}
</style>
<g>
	<rect x="0.5" class="st0" width="87" height="30"/>
	<path class="st1" d="M87,0.5v29H1v-29H87 M88-0.5H0v31h88V-0.5L88-0.5z"/>
</g>
<g>
	<path class="st1" d="M14,7.5c-4.4125,0-8,3.5875-8,8s3.5875,8,8,8s8-3.5875,8-8S18.4125,7.5,14,7.5z M14,22.2687
		c-3.7312,0-6.7688-3.0375-6.7688-6.7687S10.2688,8.7312,14,8.7312s6.7687,3.0375,6.7687,6.7688S17.7313,22.2687,14,22.2687z"/>
	<path class="st1" d="M19.1,13.275c-0.1187-0.15-0.2937-0.2375-0.4875-0.2375h-3.675c-0.0063,0-0.0188,0-0.025,0h-3.425L11.05,12.6
		c-0.2375-0.2375-0.6312-0.2375-0.8688,0c-0.2375,0.2375-0.2375,0.6313,0,0.8688l0.3688,0.3687L9.4062,18.425
		c-0.0812,0.3313,0.1188,0.6625,0.45,0.7438c0.3312,0.0812,0.6625-0.1188,0.7437-0.45l1.1125-4.4563h2.425L13.1,18.4188
		c-0.0812,0.3312,0.1188,0.6625,0.45,0.7437c0.3312,0.0813,0.6625-0.1187,0.7437-0.45l1.1125-4.4563h2.425l-1.0375,4.1562
		c-0.0812,0.3313,0.1187,0.6625,0.45,0.7438c0.05,0.0125,0.1,0.0187,0.15,0.0187c0.275,0,0.525-0.1875,0.5938-0.4688l1.2313-4.925
		C19.2563,13.6187,19.2188,13.425,19.1,13.275z"/>
</g>
<g>
	<path d="M56.1416,7.6831v-0.396h-0.0127c-0.2148,0.2998-0.5508,0.4678-0.9531,0.4678c-0.707,0-1.1152-0.3354-1.1152-0.9531
		c0-0.6479,0.6172-1.0078,1.4629-1.0078c0.2402,0,0.4316,0.0063,0.5586,0.0122c0-0.5576-0.2227-0.7974-0.7559-0.7974
		c-0.3066,0-0.6426,0.1079-0.8877,0.3115l-0.0303-0.4795c0.2812-0.168,0.6172-0.2881,1.0078-0.2881
		c0.8457,0,1.2285,0.4019,1.2285,1.2593v1.3433c0,0.186,0.0059,0.3838,0.0244,0.5278H56.1416z M56.082,6.2261
		c0,0-0.252-0.0122-0.3662-0.0122c-0.6357,0-1.0557,0.1919-1.0557,0.5879c0,0.2935,0.2695,0.4976,0.5762,0.4976
		c0.5273,0,0.8457-0.3296,0.8457-0.8037V6.2261z"/>
	<path d="M39.167,16.5322V12.498h-0.0142l-1.3169,4.0342h-0.9385l-1.3164-4.0342l-0.0142,0.0142v4.02h-0.9385v-4.8887h1.5688
		l1.1626,3.7051h0.0142l1.1626-3.7051h1.5688v4.8887H39.167z"/>
	<path d="M44.0449,16.3291c-0.3433,0.1895-0.7354,0.2871-1.2329,0.2871c-1.1978,0-1.8911-0.6865-1.8911-1.8701
		c0-1.0083,0.5254-1.9048,1.6743-1.9048c1.2256,0,1.7158,0.7563,1.7158,2.1782h-2.4937c0.042,0.5674,0.4272,0.9102,1.0366,0.9102
		c0.4482,0,0.8403-0.168,1.1909-0.3638V16.3291z M43.4146,14.375c-0.0352-0.5181-0.2803-0.8472-0.7705-0.8472
		c-0.4692,0-0.7773,0.3081-0.8267,0.8472H43.4146z"/>
	<path d="M47.418,16.5322v-2.0239c0-0.5396-0.1113-0.9385-0.6094-0.9385c-0.5947,0-0.8262,0.5742-0.8262,1.2114v1.751h-0.9375
		v-3.6069h0.8887v0.4902h0.0137c0.2871-0.4062,0.6875-0.5742,1.1836-0.5742c0.8271,0,1.2266,0.5674,1.2266,1.4146v2.2764H47.418z"/>
	<path d="M51.6953,16.5322v-2.0381c0-0.6582-0.1953-0.9243-0.6094-0.9243c-0.5527,0-0.8262,0.5039-0.8262,1.2183v1.7441h-0.9385
		v-5.2529h0.9385v2.1362h0.0137c0.2314-0.3433,0.6377-0.5742,1.1348-0.5742c0.834,0,1.2256,0.5811,1.2256,1.4077v2.2832H51.6953z"/>
	<path d="M56.4902,16.3291c-0.3428,0.1895-0.7344,0.2871-1.2324,0.2871c-1.1973,0-1.8906-0.6865-1.8906-1.8701
		c0-1.0083,0.5254-1.9048,1.6738-1.9048c1.2256,0,1.7158,0.7563,1.7158,2.1782h-2.4932c0.041,0.5674,0.4268,0.9102,1.0361,0.9102
		c0.4482,0,0.8408-0.168,1.1904-0.3638V16.3291z M55.8604,14.375c-0.0352-0.5181-0.2803-0.8472-0.7705-0.8472
		c-0.4688,0-0.7773,0.3081-0.8262,0.8472H55.8604z"/>
	<path d="M57.5117,16.5322v-3.6069h0.833v0.8193h0.0137c0.0557-0.3779,0.4482-0.9033,0.9951-0.9033
		c0.1953,0,0.252,0.021,0.2793,0.0278v0.9458c-0.084-0.0493-0.252-0.0771-0.4199-0.0771c-0.3496,0-0.7637,0.189-0.7637,1.3096
		v1.4849H57.5117z"/>
	<path d="M62.4121,16.5322c-0.0273-0.1333-0.0352-0.3784-0.041-0.5391h-0.0146c-0.21,0.3848-0.665,0.623-1.1143,0.623
		c-0.6504,0-1.2598-0.3921-1.2598-1.0786c0-0.623,0.3574-1.2324,1.7646-1.2324h0.5811V14.291c0-0.6025-0.3086-0.7632-0.8125-0.7632
		c-0.3984,0-0.7988,0.1538-1.1133,0.3921l-0.0273-0.8057c0.3359-0.1538,0.8184-0.2729,1.2529-0.2729
		c1.0791,0,1.5547,0.4341,1.5547,1.5195v0.7427c0,0.189,0.0146,0.9453,0.0557,1.4287H62.4121z M62.3281,14.8652H61.915
		c-0.665,0-1.0361,0.1963-1.0361,0.6235c0,0.2803,0.2168,0.4409,0.5957,0.4409c0.4199,0,0.8535-0.2871,0.8535-1.0225V14.8652z"/>
	<path d="M64.1055,16.5322v-0.9805h0.9805v0.9805H64.1055z"/>
	<path d="M67.7041,16.6162c-1.1631,0-1.8838-0.7983-1.8838-1.8628c0-1.1558,0.7842-1.9121,1.8838-1.9121
		s1.8906,0.7495,1.8906,1.9121C69.5947,15.8247,68.8662,16.6162,67.7041,16.6162z M68.6143,14.6411
		c0-0.5742-0.3076-1.0713-0.9102-1.0713c-0.5889,0-0.9033,0.5039-0.9033,1.0713c0,0.7637,0.2939,1.2466,0.9033,1.2466
		S68.6143,15.4185,68.6143,14.6411z"/>
	<path d="M70.3486,16.5322v-3.6069h0.834v0.8193h0.0137c0.0566-0.3779,0.4482-0.9033,0.9951-0.9033
		c0.1953,0,0.252,0.021,0.2793,0.0278v0.9458c-0.084-0.0493-0.252-0.0771-0.4199-0.0771c-0.3496,0-0.7637,0.189-0.7637,1.3096
		v1.4849H70.3486z"/>
	<path d="M75.4248,15.958h-0.0137c-0.2031,0.3501-0.6445,0.5742-1.1211,0.5742c-0.9941,0-1.4707-0.7563-1.4707-1.8208
		c0-0.8687,0.4482-1.8701,1.5273-1.8701c0.4756,0,0.8467,0.1611,1.1064,0.5742h0.0137v-0.4902h0.8965v3.271
		c0,1.2188-0.6299,1.8906-1.8906,1.8906c-0.3643,0-0.7988-0.0488-1.2607-0.2451l0.0771-0.7979
		c0.3291,0.1748,0.7773,0.3145,1.0576,0.3145c0.8818,0,1.0781-0.5674,1.0781-1.3164V15.958z M75.4248,14.6904
		c0-0.5537-0.1963-1.1206-0.791-1.1206c-0.5605,0-0.834,0.4829-0.834,1.1416c0,0.4902,0.2598,1.0923,0.7988,1.0923
		C75.2012,15.8037,75.4248,15.2715,75.4248,14.6904z"/>
	<path d="M46.0986,24.9434V20.625h0.54v0.4316h0.0117c0.2158-0.3115,0.5996-0.5029,1.0371-0.5029
		c0.8574,0,1.3193,0.6895,1.3193,1.5469c0,0.8633-0.4072,1.6553-1.3135,1.6553c-0.4678,0-0.8096-0.1562-1.0195-0.4922h-0.0117
		v1.6797H46.0986z M48.4072,22.1367c0-0.7861-0.3896-1.1338-0.8457-1.1279c-0.5938,0.0059-0.8994,0.5703-0.8994,1.1514
		c0,0.54,0.2812,1.1396,0.8994,1.1396C48.1016,23.2998,48.4072,22.748,48.4072,22.1367z"/>
	<path d="M49.7646,23.6836V20.625h0.5273v0.4736h0.0127c0.1553-0.3291,0.4785-0.5449,0.8027-0.5449
		c0.1201,0,0.2285,0.0117,0.3662,0.042v0.5029c-0.1025-0.042-0.2158-0.0537-0.3115-0.0537c-0.5156,0-0.834,0.498-0.834,1.2471
		v1.3916H49.7646z"/>
	<path d="M51.8945,22.1543c0-0.9355,0.623-1.6006,1.5586-1.6006c0.8945,0,1.5537,0.6357,1.5537,1.6006
		c0,0.8574-0.6182,1.6016-1.5596,1.6016C52.5488,23.7559,51.8945,23.042,51.8945,22.1543z M54.4072,22.1543
		c0-0.6055-0.3662-1.1455-0.96-1.1455c-0.5879,0-0.9531,0.5576-0.9531,1.1455s0.3242,1.1455,0.959,1.1455
		C54.084,23.2998,54.4072,22.748,54.4072,22.1543z"/>
	<path d="M55.207,24.5049c0.0596,0.0127,0.1494,0.0186,0.2217,0.0186c0.2881,0,0.4072-0.2764,0.4072-0.6543V20.625h0.5645v3.2568
		c0,0.8691-0.3604,1.1328-0.8633,1.1328c-0.1211,0-0.2705-0.0059-0.3486-0.0234L55.207,24.5049z M55.8008,19.9414v-0.6357h0.6348
		v0.6357H55.8008z"/>
	<path d="M59.7773,23.5576c-0.4434,0.1797-0.708,0.1982-0.96,0.1982c-1.0371,0-1.5889-0.5996-1.5889-1.6553
		c0-0.9238,0.582-1.5469,1.4336-1.5469c0.8867,0,1.3486,0.5635,1.3486,1.7266h-2.1826c0.0059,0.6113,0.4736,1.0195,1.0078,1.0195
		c0.3232,0,0.749-0.1562,0.9414-0.3057V23.5576z M59.4111,21.8604c-0.0059-0.4912-0.2881-0.8516-0.7676-0.8516
		c-0.4502,0-0.7549,0.3242-0.8154,0.8516H59.4111z"/>
	<path d="M62.7832,23.6299c-0.1914,0.084-0.3965,0.126-0.707,0.126c-0.9297,0-1.5596-0.7314-1.5596-1.6016
		c0-0.9355,0.624-1.6006,1.5596-1.6006c0.2207,0,0.5215,0.0537,0.6836,0.1191l-0.0488,0.4678
		c-0.2158-0.0898-0.4258-0.1318-0.6113-0.1318c-0.6172,0-0.9834,0.5518-0.9834,1.1455c0,0.5518,0.2998,1.1455,1.0195,1.1455
		c0.1924,0,0.4316-0.0596,0.6055-0.1738L62.7832,23.6299z"/>
	<path d="M65.1055,23.6719c-0.1504,0.042-0.3057,0.084-0.4863,0.084c-0.6289,0-0.9355-0.3301-0.9355-0.8818v-1.793h-0.6895V20.625
		h0.6895v-0.707l0.5645-0.1807v0.8877h0.8096v0.4561H64.248v1.6846c0,0.2822,0.168,0.5342,0.4736,0.5342
		c0.1865,0,0.3057-0.0596,0.3838-0.1084V23.6719z"/>
</g>
</svg>
